# xmcd
#
# Track frame offsets:
#	150
#	13940
#	26954
#	44720
#	61802
#	77274
#	89816
#	107803
#	122896
#	138529
#
# Disc length: 2045 seconds
#
# Revision: 2
# Processed by: cddbd v1.5.2PL0 Copyright (c) Steve Scherf et al.
# Submitted via: audiograbber 1.83.01
#
DISCID=8e07fb0a
DTITLE=White Buffalo - Darkest Darks, Lightest Lights
DYEAR=2017
DGENRE=Americana
TTITLE0=Hide And Seek
TTITLE1=Avalon
TTITLE2=Robbery
TTITLE3=The Observatory
TTITLE4=Madam's Soft, Madam's Sweet
TTITLE5=Nightstalker Blues
TTITLE6=If I Lost My Eyes
TTITLE7=Border Town - Bury Me In Baja
TTITLE8=The Heart And Soul Of The Night
TTITLE9=I Am The Moon
EXTD=
EXTT0=
EXTT1=
EXTT2=
EXTT3=
EXTT4=
EXTT5=
EXTT6=
EXTT7=
EXTT8=
EXTT9=
PLAYORDER=
